<svg width="100" height="100" viewBox="0 0 100 100" fill="none" xmlns="http://www.w3.org/2000/svg">
<circle cx="50" cy="50" r="50" fill="#B8DCE8"/>
<circle cx="50" cy="50" r="40" fill="#AFD2DD"/>
<path d="M70.5375 49.3655C70.1167 48.4834 69.2146 48.2719 68.6042 48.2213V42.8455C68.6042 40.8517 66.7354 39.2303 64.4375 39.2303H51.9375V36.7178C52.5729 36.2225 52.9792 35.5103 52.9792 34.7114C52.9792 33.9923 52.6499 33.3026 52.0639 32.7941C51.4778 32.2857 50.683 32 49.8542 32C49.0254 32 48.2305 32.2857 47.6445 32.7941C47.0584 33.3026 46.7292 33.9923 46.7292 34.7114C46.7292 35.5103 47.1354 36.2225 47.7708 36.7178V39.2303H35.2708C32.9729 39.2303 31.1042 40.8517 31.1042 42.8455V48.2628L30.9333 48.2737C30.4083 48.3066 29.917 48.5107 29.5584 48.845C29.1997 49.1794 29.0002 49.6191 29 50.0758V53.691C29 54.1704 29.2195 54.6302 29.6102 54.9692C30.0009 55.3082 30.5308 55.4986 31.0833 55.4986H31.1042V64.5365C31.1042 66.5303 32.9729 68.1517 35.2708 68.1517H64.4375C66.7354 68.1517 68.6042 66.5303 68.6042 64.5365V55.4986C69.1567 55.4986 69.6866 55.3082 70.0773 54.9692C70.468 54.6302 70.6875 54.1704 70.6875 53.691V50.1879C70.7115 49.9074 70.6601 49.6259 70.5375 49.3655V49.3655ZM35.2708 64.5365V42.8455H64.4375L64.4396 50.0686L64.4375 50.0758V53.691L64.4396 53.7001L64.4417 64.5365H35.2708Z" fill="#4E5CCD"/>
<path d="M42.5625 53.6908C44.2884 53.6908 45.6875 52.0722 45.6875 50.0756C45.6875 48.079 44.2884 46.4604 42.5625 46.4604C40.8366 46.4604 39.4375 48.079 39.4375 50.0756C39.4375 52.0722 40.8366 53.6908 42.5625 53.6908Z" fill="#4E5CCD"/>
<path d="M57.1465 53.6908C58.8724 53.6908 60.2715 52.0722 60.2715 50.0756C60.2715 48.079 58.8724 46.4604 57.1465 46.4604C55.4206 46.4604 54.0215 48.079 54.0215 50.0756C54.0215 52.0722 55.4206 53.6908 57.1465 53.6908Z" fill="#4E5CCD"/>
<path d="M41.5215 57.306H58.1882V60.9212H41.5215V57.306Z" fill="#4E5CCD"/>
</svg>
