<svg width="100" height="100" viewBox="0 0 100 100" fill="none" xmlns="http://www.w3.org/2000/svg">
<circle cx="50" cy="50" r="50" fill="#B8DCE8"/>
<circle cx="50" cy="50" r="40" fill="#AFD2DD"/>
<path d="M60.9375 35.9375H67.1875V42.1875H60.9375V35.9375ZM60.9375 45.3125H67.1875V51.5625H60.9375V45.3125ZM51.5625 35.9375H57.8125V42.1875H51.5625V35.9375ZM51.5625 45.3125H57.8125V51.5625H51.5625V45.3125Z" fill="#4E5CCD"/>
<path d="M47.6562 65.625C48.9507 65.625 50 64.5757 50 63.2812C50 61.9868 48.9507 60.9375 47.6562 60.9375C46.3618 60.9375 45.3125 61.9868 45.3125 63.2812C45.3125 64.5757 46.3618 65.625 47.6562 65.625Z" fill="#4E5CCD"/>
<path d="M57.8125 71.875H37.5C36.6715 71.8742 35.8771 71.5447 35.2912 70.9588C34.7053 70.3729 34.3758 69.5785 34.375 68.75V31.25C34.3758 30.4215 34.7053 29.6271 35.2912 29.0412C35.8771 28.4553 36.6715 28.1258 37.5 28.125H57.8125V31.25H37.5V68.75H57.8125V56.25H60.9375V68.75C60.9367 69.5785 60.6072 70.3729 60.0213 70.9588C59.4354 71.5447 58.641 71.8742 57.8125 71.875Z" fill="#4E5CCD"/>
</svg>
