<svg width="1067" height="952" viewBox="0 0 1067 952" fill="none" xmlns="http://www.w3.org/2000/svg">
<path d="M435.051 5.28693C428.289 6.03827 421.256 7.09373 414.34 7.93714C405.169 9.05564 392.882 6.22646 384.795 11.3726C373.726 18.4166 359.778 20.4184 347.496 25.1144C335.156 29.8328 322.265 33.4526 309.608 37.9729C296.322 42.7177 283.477 53.5067 270.738 60.0579C264.962 63.0288 258.779 67.613 252.285 68.7938C250.604 69.0994 243.423 72.1794 242.371 73.4071C234.636 82.4309 223.079 86.3551 214.593 94.0199C205.431 102.295 193.067 108.636 185.244 118.264C182.357 121.818 172.767 127.69 171.895 131.614C171.179 134.837 165.454 143.224 162.963 145.846C156.924 152.204 152.503 159.463 147.062 166.459C133.365 184.069 120.439 203.177 109.075 222.408C101.51 235.211 88.6383 244.575 79.1378 255.781C71.863 264.361 62.991 273.496 54.3044 280.811C49.2523 285.065 41.7315 289.422 37.5197 294.16C33.734 298.419 28.6236 298.577 23.3853 298.577C15.3176 298.577 18.8293 292.729 14.5512 287.976C5.53663 277.96 2.18359 265.043 2.18359 251.855C2.18359 245.401 6.96872 233.205 14.5512 233.205C20.7951 233.205 28.6857 231.157 28.6857 239.389C28.6857 249.974 37.5197 257.165 37.5197 267.56C37.5197 269.341 38.6742 275.601 39.6792 276.983C45.25 284.642 44.5869 297.769 44.5869 306.822C44.5869 315.931 45.7897 326.117 43.5072 334.993C41.2118 343.919 37.9765 352.73 34.8695 361.397C32.5646 367.826 31.7387 376.618 27.8023 382.304C20.5778 392.739 16.318 404.93 16.318 417.738C16.318 429.517 16.318 441.296 16.318 453.074C16.318 456.378 19.4898 458.966 20.8332 461.908C28.0584 477.735 29.1134 496.129 32.1211 513.047C36.5849 538.156 33.196 562.673 36.1455 587.744C39.5166 616.399 42.3 644.42 44.6851 673.042C45.4666 682.419 49.666 691.405 51.2616 700.623C52.7949 709.483 53.6507 717.856 55.5804 726.733C56.6705 731.747 59.7775 736.359 64.2181 738.904C76.2004 745.772 89.4766 751.484 101.91 757.554C121.059 766.902 142.128 777.984 162.57 784.056C173.433 787.282 191.777 790.82 192.901 804.865C193.674 814.537 194.717 827.516 198.299 836.471C201.096 843.464 207.167 846.133 213.415 849.82C227.667 858.231 242.199 866.804 255.033 877.304C262.416 883.345 269.072 889.341 271.131 898.898C273.424 909.543 278.107 916.811 288.995 920.493C312.264 928.361 337.716 927.879 361.827 931.094C370.453 932.244 380.06 932.606 384.697 940.811C393.9 957.093 422.143 946.787 435.64 942.48C453.966 936.631 471.97 926.888 489.822 919.511C514.455 909.332 541.45 902.643 567.169 895.757C576.6 893.233 580.723 891.626 586.211 886.138C589.191 883.158 598.369 882.612 602.113 881.623C614.017 878.478 626.072 876.111 638.136 873.672C670.064 867.219 700.471 855.198 732.071 847.072C744.965 843.757 755.707 834.423 766.916 826.95C777.203 820.092 789.809 814.55 801.369 810.165C810.629 806.653 817.75 799.641 827.675 797.7C861.927 790.998 886.497 768.714 917.586 754.805C939.325 745.08 956.443 729.07 978.05 719.077C986.32 715.252 992.475 708.713 998.662 702.194C1006.65 693.774 1012.39 689.638 1022.32 684.526C1031.21 679.946 1042.66 677.203 1052.55 675.005C1074.22 670.188 1042.09 625.697 1057.36 619.154C1067.16 614.953 1066.92 615.549 1062.46 602.075C1053.08 573.721 1044.55 543.334 1032.23 516.09C1022.8 495.226 1010.5 475.295 999.644 455.135C994.78 446.102 995.744 431.506 988.945 424.707C983.738 419.5 978.823 412.999 972.16 409.493C965.615 406.048 963.751 413.249 960.774 418.327C957.764 423.462 954.002 429.08 950.272 433.639C945.324 439.686 949.192 458.695 949.192 466.129C949.192 480.853 956.362 496.459 972.553 496.459C987.156 496.459 998.478 477.238 1006.22 466.914C1010.97 460.575 1012.8 456.357 1012.8 448.755C1012.8 440.468 1019.86 433.942 1019.86 425.787C1019.86 409.729 1024.89 394.044 1025.16 377.887C1025.52 356.935 1028.15 338.289 1023.1 317.521C1016.66 290.998 1007.25 264.017 1005.73 236.739C1005.45 231.694 1000.51 224.384 999.055 219.463C998.294 216.883 996.69 200.468 993.362 199.636C989.628 198.702 986.256 193.51 982.663 191.489C978.267 189.016 973.531 179.709 969.412 178.532C962.92 176.677 959.88 170.958 955.081 166.459C947.14 159.014 937.692 158.353 927.99 155.858C914.62 152.42 902.24 154.501 890.004 147.417C883.198 143.476 876.531 139.061 869.686 135.638C865.784 133.687 863.684 129.474 859.085 128.963C855.793 128.598 857.011 111.804 857.711 108.743C860.218 97.7725 863.859 89.0364 870.471 79.591C872.707 76.3962 873.249 74.0765 876.753 72.033C883.331 68.1957 891.717 55.2022 899.721 54.7575C911.102 54.1253 922.017 51.2239 933.192 51.2239C945.479 51.2239 953.176 59.8745 963.326 65.751C972.845 71.262 984.528 92.8388 984.528 103.148C984.528 107.336 984.528 111.524 984.528 115.712C984.528 125.472 984.998 135.369 983.743 145.061C982.816 152.218 981.446 172.637 973.927 177.06C963.335 183.29 958.774 198.066 948.603 205.525C944.683 208.399 937.593 206.133 932.996 206.899C920.756 208.939 909.196 213.848 896.678 211.022C881.439 207.581 866.756 205.317 852.116 199.537C832.738 191.888 815.751 182.369 801.762 166.655C795.467 159.584 781.755 146.28 781.345 135.638C780.982 126.193 780.356 112.453 776.928 103.541C773.884 95.6247 775.001 75.1348 767.211 70.2662C757.197 64.0074 749.46 53.6651 740.414 45.8253C719.475 27.6776 686.867 17.194 659.436 15.8878C643.096 15.1097 627.236 7.60198 610.358 7.1519C585.02 6.47624 559.264 8.88313 534.091 5.28693C504.768 1.09807 476.942 9.89944 447.811 8.82055C444.43 8.69531 429.751 -4.86689 429.751 5.28693" stroke="black" stroke-width="3" stroke-linecap="round"/>
</svg>
