<svg width="100" height="100" viewBox="0 0 100 100" fill="none" xmlns="http://www.w3.org/2000/svg">
<circle cx="50" cy="50" r="50" fill="#B8DCE8"/>
<circle cx="50" cy="50" r="40" fill="#AFD2DD"/>
<path d="M65.4584 41.2304C63.7423 39.0014 61.4179 37.1749 58.6919 35.9135C55.9659 34.6521 52.9228 33.9947 49.8334 34C46.7493 33.9984 43.7125 34.6575 40.9925 35.9188C38.2726 37.1801 35.9537 39.0047 34.2417 41.2304" stroke="#4E5CCD" stroke-width="2" stroke-linecap="round" stroke-linejoin="round"/>
<path d="M48.7917 34C47.168 36.257 45.8892 38.6874 44.9875 41.2303M50.875 34C52.5008 36.259 53.781 38.692 54.6834 41.2376M65.4584 59.3062C63.7423 61.5352 61.4179 63.3616 58.6919 64.6231C55.9659 65.8845 52.9228 66.5418 49.8334 66.5365C46.7493 66.5382 43.7125 65.8791 40.9925 64.6177C38.2726 63.3564 35.9537 61.5319 34.2417 59.3062" stroke="#4E5CCD" stroke-width="2" stroke-linecap="round" stroke-linejoin="round"/>
<path d="M48.7917 66.5365C47.168 64.2795 45.8892 61.8491 44.9875 59.3062M50.875 66.5365C52.5008 64.2775 53.781 61.8445 54.6833 59.2989M29 46.6531L31.0833 53.8834L34.2083 46.6531L37.3333 53.8834L39.4167 46.6531M60.25 46.6531L62.3333 53.8834L65.4583 46.6531L68.5833 53.8834L70.6667 46.6531M44.625 46.6531L46.7083 53.8834L49.8333 46.6531L52.9583 53.8834L55.0417 46.6531" stroke="#4E5CCD" stroke-width="2" stroke-linecap="round" stroke-linejoin="round"/>
</svg>
