<svg width="280" height="44" viewBox="0 0 280 44" fill="none" xmlns="http://www.w3.org/2000/svg">
<path d="M24.2188 26.9766C23.8672 29.9844 22.7539 32.3086 20.8789 33.9492C19.0169 35.5768 16.5365 36.3906 13.4375 36.3906C10.0781 36.3906 7.38281 35.1862 5.35156 32.7773C3.33333 30.3685 2.32422 27.1458 2.32422 23.1094V20.375C2.32422 17.7318 2.79297 15.4076 3.73047 13.4023C4.68099 11.3971 6.02214 9.86068 7.75391 8.79297C9.48568 7.71224 11.4909 7.17188 13.7695 7.17188C16.7904 7.17188 19.2122 8.01823 21.0352 9.71094C22.8581 11.3906 23.9193 13.7214 24.2188 16.7031H20.4492C20.1237 14.4375 19.4141 12.7969 18.3203 11.7812C17.2396 10.7656 15.7227 10.2578 13.7695 10.2578C11.3737 10.2578 9.49219 11.1432 8.125 12.9141C6.77083 14.6849 6.09375 17.2044 6.09375 20.4727V23.2266C6.09375 26.3125 6.73828 28.7669 8.02734 30.5898C9.31641 32.4128 11.1198 33.3242 13.4375 33.3242C15.5208 33.3242 17.1159 32.8555 18.2227 31.918C19.3424 30.9674 20.0846 29.3203 20.4492 26.9766H24.2188ZM50.2734 26.9766C49.9219 29.9844 48.8086 32.3086 46.9336 33.9492C45.0716 35.5768 42.5911 36.3906 39.4922 36.3906C36.1328 36.3906 33.4375 35.1862 31.4062 32.7773C29.388 30.3685 28.3789 27.1458 28.3789 23.1094V20.375C28.3789 17.7318 28.8477 15.4076 29.7852 13.4023C30.7357 11.3971 32.0768 9.86068 33.8086 8.79297C35.5404 7.71224 37.5456 7.17188 39.8242 7.17188C42.8451 7.17188 45.2669 8.01823 47.0898 9.71094C48.9128 11.3906 49.974 13.7214 50.2734 16.7031H46.5039C46.1784 14.4375 45.4688 12.7969 44.375 11.7812C43.2943 10.7656 41.7773 10.2578 39.8242 10.2578C37.4284 10.2578 35.5469 11.1432 34.1797 12.9141C32.8255 14.6849 32.1484 17.2044 32.1484 20.4727V23.2266C32.1484 26.3125 32.793 28.7669 34.082 30.5898C35.3711 32.4128 37.1745 33.3242 39.4922 33.3242C41.5755 33.3242 43.1706 32.8555 44.2773 31.918C45.3971 30.9674 46.1393 29.3203 46.5039 26.9766H50.2734ZM77.1289 36H73.3594V10.6484H59.3359V36H55.5859V7.5625H77.1289V36ZM101.309 10.6484H87.5977V19.1641H94.668C97.6367 19.2031 99.9544 19.9648 101.621 21.4492C103.288 22.9336 104.121 24.9518 104.121 27.5039C104.121 30.069 103.281 32.1133 101.602 33.6367C99.9219 35.1602 97.6302 35.9479 94.7266 36H83.8281V7.5625H101.309V10.6484ZM87.5977 22.25V32.9336H94.4531C96.3151 32.9336 97.7604 32.4388 98.7891 31.4492C99.8307 30.4596 100.352 29.1315 100.352 27.4648C100.352 25.8633 99.8503 24.6003 98.8477 23.6758C97.8581 22.7513 96.4453 22.276 94.6094 22.25H87.5977Z" fill="#9C0202"/>
<path d="M120.055 22.7441C119.967 23.4961 119.688 24.0771 119.22 24.4873C118.754 24.8942 118.134 25.0977 117.359 25.0977C116.52 25.0977 115.846 24.7965 115.338 24.1943C114.833 23.5921 114.581 22.7865 114.581 21.7773V21.0938C114.581 20.4329 114.698 19.8519 114.933 19.3506C115.17 18.8493 115.506 18.4652 115.938 18.1982C116.371 17.9281 116.873 17.793 117.442 17.793C118.198 17.793 118.803 18.0046 119.259 18.4277C119.715 18.8477 119.98 19.4303 120.055 20.1758H119.112C119.031 19.6094 118.854 19.1992 118.58 18.9453C118.31 18.6914 117.931 18.5645 117.442 18.5645C116.843 18.5645 116.373 18.7858 116.031 19.2285C115.693 19.6712 115.523 20.3011 115.523 21.1182V21.8066C115.523 22.5781 115.685 23.1917 116.007 23.6475C116.329 24.1032 116.78 24.3311 117.359 24.3311C117.88 24.3311 118.279 24.2139 118.556 23.9795C118.836 23.7419 119.021 23.3301 119.112 22.7441H120.055ZM126.808 21.6748C126.808 22.3714 126.69 22.9801 126.456 23.501C126.222 24.0186 125.89 24.4141 125.46 24.6875C125.03 24.9609 124.529 25.0977 123.956 25.0977C123.396 25.0977 122.9 24.9609 122.467 24.6875C122.034 24.4108 121.697 24.0186 121.456 23.5107C121.218 22.9997 121.096 22.4089 121.09 21.7383V21.2256C121.09 20.542 121.209 19.9382 121.446 19.4141C121.684 18.89 122.019 18.4896 122.452 18.2129C122.888 17.9329 123.386 17.793 123.946 17.793C124.516 17.793 125.017 17.9313 125.45 18.208C125.886 18.4814 126.222 18.8802 126.456 19.4043C126.69 19.9251 126.808 20.5322 126.808 21.2256V21.6748ZM125.875 21.2158C125.875 20.3727 125.706 19.7266 125.367 19.2773C125.029 18.8249 124.555 18.5986 123.946 18.5986C123.354 18.5986 122.887 18.8249 122.545 19.2773C122.206 19.7266 122.032 20.3516 122.022 21.1523V21.6748C122.022 22.4919 122.193 23.1348 122.535 23.6035C122.88 24.069 123.354 24.3018 123.956 24.3018C124.562 24.3018 125.03 24.082 125.362 23.6426C125.694 23.1999 125.865 22.5667 125.875 21.7432V21.2158ZM128.214 25V17.8906H130.538C131.31 17.8906 131.889 18.0501 132.276 18.3691C132.667 18.6882 132.862 19.1602 132.862 19.7852C132.862 20.1172 132.768 20.4118 132.579 20.6689C132.39 20.9229 132.133 21.1198 131.808 21.2598C132.192 21.3672 132.494 21.5723 132.716 21.875C132.94 22.1745 133.053 22.5326 133.053 22.9492C133.053 23.5872 132.846 24.0885 132.433 24.4531C132.019 24.8177 131.435 25 130.68 25H128.214ZM129.151 21.6748V24.2334H130.699C131.135 24.2334 131.479 24.1211 131.729 23.8965C131.983 23.6686 132.11 23.3561 132.11 22.959C132.11 22.1029 131.645 21.6748 130.714 21.6748H129.151ZM129.151 20.9229H130.567C130.978 20.9229 131.305 20.8203 131.549 20.6152C131.796 20.4102 131.92 20.1318 131.92 19.7803C131.92 19.3896 131.806 19.1064 131.578 18.9307C131.35 18.7516 131.004 18.6621 130.538 18.6621H129.151V20.9229ZM135.382 22.2168V25H134.444V17.8906H137.066C137.844 17.8906 138.453 18.0892 138.893 18.4863C139.335 18.8835 139.557 19.4092 139.557 20.0635C139.557 20.7536 139.34 21.2858 138.907 21.6602C138.478 22.0312 137.861 22.2168 137.057 22.2168H135.382ZM135.382 21.4502H137.066C137.568 21.4502 137.952 21.333 138.219 21.0986C138.486 20.861 138.619 20.5192 138.619 20.0732C138.619 19.6501 138.486 19.3115 138.219 19.0576C137.952 18.8037 137.586 18.6719 137.12 18.6621H135.382V21.4502ZM144.771 21.7139H141.69V24.2334H145.27V25H140.753V17.8906H145.221V18.6621H141.69V20.9473H144.771V21.7139ZM147.647 17.8906L149.972 23.6914L152.296 17.8906H153.512V25H152.574V22.2314L152.662 19.2432L150.328 25H149.61L147.281 19.2578L147.374 22.2314V25H146.437V17.8906H147.647ZM159.186 21.7139H156.104V24.2334H159.684V25H155.167V17.8906H159.635V18.6621H156.104V20.9473H159.186V21.7139ZM166.314 25H165.372V21.7139H161.788V25H160.851V17.8906H161.788V20.9473H165.372V17.8906H166.314V25ZM173.443 25H172.501V21.7139H168.917V25H167.979V17.8906H168.917V20.9473H172.501V17.8906H173.443V25ZM176.09 20.791H177.857C178.6 20.8008 179.179 20.9912 179.596 21.3623C180.012 21.7334 180.221 22.238 180.221 22.876C180.221 23.5173 180.011 24.0283 179.591 24.4092C179.171 24.79 178.598 24.987 177.872 25H175.152V17.8906H176.09V20.791ZM176.09 21.5625V24.2334H177.804C178.269 24.2334 178.631 24.1097 178.888 23.8623C179.148 23.6149 179.278 23.2829 179.278 22.8662C179.278 22.4658 179.153 22.1501 178.902 21.9189C178.655 21.6878 178.302 21.569 177.843 21.5625H176.09ZM182.018 25H181.08V17.8906H182.018V25ZM187.779 21.7139H184.698V24.2334H188.277V25H183.761V17.8906H188.229V18.6621H184.698V20.9473H187.779V21.7139ZM197.154 22.7441C197.066 23.4961 196.788 24.0771 196.319 24.4873C195.854 24.8942 195.234 25.0977 194.459 25.0977C193.619 25.0977 192.945 24.7965 192.438 24.1943C191.933 23.5921 191.681 22.7865 191.681 21.7773V21.0938C191.681 20.4329 191.798 19.8519 192.032 19.3506C192.27 18.8493 192.605 18.4652 193.038 18.1982C193.471 17.9281 193.972 17.793 194.542 17.793C195.297 17.793 195.903 18.0046 196.358 18.4277C196.814 18.8477 197.079 19.4303 197.154 20.1758H196.212C196.131 19.6094 195.953 19.1992 195.68 18.9453C195.41 18.6914 195.03 18.5645 194.542 18.5645C193.943 18.5645 193.473 18.7858 193.131 19.2285C192.792 19.6712 192.623 20.3011 192.623 21.1182V21.8066C192.623 22.5781 192.784 23.1917 193.106 23.6475C193.429 24.1032 193.88 24.3311 194.459 24.3311C194.98 24.3311 195.379 24.2139 195.655 23.9795C195.935 23.7419 196.121 23.3301 196.212 22.7441H197.154ZM202.921 17.8906H203.858V25H202.921V19.5215L199.42 25H198.478V17.8906H199.42V23.3691L202.921 17.8906ZM210.797 22.7441C210.709 23.4961 210.431 24.0771 209.962 24.4873C209.496 24.8942 208.876 25.0977 208.102 25.0977C207.262 25.0977 206.588 24.7965 206.08 24.1943C205.576 23.5921 205.323 22.7865 205.323 21.7773V21.0938C205.323 20.4329 205.44 19.8519 205.675 19.3506C205.912 18.8493 206.248 18.4652 206.681 18.1982C207.114 17.9281 207.615 17.793 208.185 17.793C208.94 17.793 209.545 18.0046 210.001 18.4277C210.457 18.8477 210.722 19.4303 210.797 20.1758H209.854C209.773 19.6094 209.596 19.1992 209.322 18.9453C209.052 18.6914 208.673 18.5645 208.185 18.5645C207.586 18.5645 207.115 18.7858 206.773 19.2285C206.435 19.6712 206.266 20.3011 206.266 21.1182V21.8066C206.266 22.5781 206.427 23.1917 206.749 23.6475C207.071 24.1032 207.522 24.3311 208.102 24.3311C208.622 24.3311 209.021 24.2139 209.298 23.9795C209.578 23.7419 209.763 23.3301 209.854 22.7441H210.797ZM216.847 18.6621H214.562V25H213.629V18.6621H211.349V17.8906H216.847V18.6621ZM221.92 21.7139H218.839V24.2334H222.418V25H217.901V17.8906H222.369V18.6621H218.839V20.9473H221.92V21.7139ZM224.796 17.8906L227.12 23.6914L229.444 17.8906H230.66V25H229.723V22.2314L229.811 19.2432L227.477 25H226.759L224.43 19.2578L224.522 22.2314V25H223.585V17.8906H224.796ZM233.297 20.791H235.064C235.807 20.8008 236.386 20.9912 236.803 21.3623C237.219 21.7334 237.428 22.238 237.428 22.876C237.428 23.5173 237.218 24.0283 236.798 24.4092C236.378 24.79 235.805 24.987 235.079 25H232.359V17.8906H233.297V20.791ZM233.297 21.5625V24.2334H235.011C235.476 24.2334 235.838 24.1097 236.095 23.8623C236.355 23.6149 236.485 23.2829 236.485 22.8662C236.485 22.4658 236.36 22.1501 236.109 21.9189C235.862 21.6878 235.509 21.569 235.05 21.5625H233.297ZM239.225 25H238.287V17.8906H239.225V25ZM120.255 36H119.312V29.6621H115.807V36H114.869V28.8906H120.255V36ZM127.433 32.6748C127.433 33.3714 127.315 33.9801 127.081 34.501C126.847 35.0186 126.515 35.4141 126.085 35.6875C125.655 35.9609 125.154 36.0977 124.581 36.0977C124.021 36.0977 123.525 35.9609 123.092 35.6875C122.659 35.4108 122.322 35.0186 122.081 34.5107C121.843 33.9997 121.721 33.4089 121.715 32.7383V32.2256C121.715 31.542 121.834 30.9382 122.071 30.4141C122.309 29.89 122.644 29.4896 123.077 29.2129C123.513 28.9329 124.011 28.793 124.571 28.793C125.141 28.793 125.642 28.9313 126.075 29.208C126.511 29.4814 126.847 29.8802 127.081 30.4043C127.315 30.9251 127.433 31.5322 127.433 32.2256V32.6748ZM126.5 32.2158C126.5 31.3727 126.331 30.7266 125.992 30.2773C125.654 29.8249 125.18 29.5986 124.571 29.5986C123.979 29.5986 123.512 29.8249 123.17 30.2773C122.831 30.7266 122.657 31.3516 122.647 32.1523V32.6748C122.647 33.4919 122.818 34.1348 123.16 34.6035C123.505 35.069 123.979 35.3018 124.581 35.3018C125.187 35.3018 125.655 35.082 125.987 34.6426C126.319 34.1999 126.49 33.5667 126.5 32.7432V32.2158ZM133.727 32.7578H132.965V36H132.027V32.7578H131.222L129.21 36H128.038L130.431 32.25L128.224 28.8906H129.332L131.222 31.9766H132.027V28.8906H132.965V31.9766H133.736L135.626 28.8906H136.729L134.522 32.2451L136.915 36H135.748L133.727 32.7578ZM141.739 34.1445H138.761L138.092 36H137.125L139.84 28.8906H140.66L143.38 36H142.418L141.739 34.1445ZM139.044 33.373H141.461L140.25 30.0479L139.044 33.373ZM145.274 33.2168V36H144.337V28.8906H146.959C147.737 28.8906 148.346 29.0892 148.785 29.4863C149.228 29.8835 149.449 30.4092 149.449 31.0635C149.449 31.7536 149.233 32.2858 148.8 32.6602C148.37 33.0312 147.753 33.2168 146.949 33.2168H145.274ZM145.274 32.4502H146.959C147.46 32.4502 147.844 32.333 148.111 32.0986C148.378 31.861 148.512 31.5192 148.512 31.0732C148.512 30.6501 148.378 30.3115 148.111 30.0576C147.844 29.8037 147.478 29.6719 147.013 29.6621H145.274V32.4502ZM156.109 36H155.167V32.7139H151.583V36H150.646V28.8906H151.583V31.9473H155.167V28.8906H156.109V36ZM163.243 32.6748C163.243 33.3714 163.126 33.9801 162.892 34.501C162.657 35.0186 162.325 35.4141 161.896 35.6875C161.466 35.9609 160.965 36.0977 160.392 36.0977C159.832 36.0977 159.335 35.9609 158.902 35.6875C158.469 35.4108 158.132 35.0186 157.892 34.5107C157.654 33.9997 157.532 33.4089 157.525 32.7383V32.2256C157.525 31.542 157.644 30.9382 157.882 30.4141C158.119 29.89 158.455 29.4896 158.888 29.2129C159.324 28.9329 159.822 28.793 160.382 28.793C160.951 28.793 161.453 28.9313 161.886 29.208C162.322 29.4814 162.657 29.8802 162.892 30.4043C163.126 30.9251 163.243 31.5322 163.243 32.2256V32.6748ZM162.311 32.2158C162.311 31.3727 162.141 30.7266 161.803 30.2773C161.464 29.8249 160.991 29.5986 160.382 29.5986C159.789 29.5986 159.322 29.8249 158.98 30.2773C158.642 30.7266 158.468 31.3516 158.458 32.1523V32.6748C158.458 33.4919 158.629 34.1348 158.971 34.6035C159.316 35.069 159.789 35.3018 160.392 35.3018C160.997 35.3018 161.466 35.082 161.798 34.6426C162.13 34.1999 162.301 33.5667 162.311 32.7432V32.2158ZM169.132 28.8906H170.069V36H169.132V30.5215L165.631 36H164.688V28.8906H165.631V34.3691L169.132 28.8906ZM168.868 27.123C168.868 27.5169 168.733 27.8343 168.463 28.0752C168.196 28.3128 167.844 28.4316 167.408 28.4316C166.972 28.4316 166.619 28.3112 166.349 28.0703C166.078 27.8294 165.943 27.5137 165.943 27.123H166.681C166.681 27.3509 166.743 27.5299 166.866 27.6602C166.99 27.7871 167.171 27.8506 167.408 27.8506C167.636 27.8506 167.813 27.7871 167.94 27.6602C168.071 27.5332 168.136 27.3542 168.136 27.123H168.868ZM178.595 29.6621H175.167V31.791H176.935C177.677 31.8008 178.256 31.9912 178.673 32.3623C179.09 32.7334 179.298 33.238 179.298 33.876C179.298 34.5173 179.088 35.0283 178.668 35.4092C178.248 35.79 177.675 35.987 176.949 36H174.225V28.8906H178.595V29.6621ZM175.167 32.5625V35.2334H176.881C177.346 35.2334 177.708 35.1097 177.965 34.8623C178.225 34.6149 178.355 34.2829 178.355 33.8662C178.355 33.4658 178.23 33.1501 177.979 32.9189C177.732 32.6878 177.379 32.569 176.92 32.5625H175.167ZM184.586 32.7139H181.505V35.2334H185.084V36H180.567V28.8906H185.035V29.6621H181.505V31.9473H184.586V32.7139ZM189.898 30.7998C189.898 30.4222 189.76 30.1227 189.483 29.9014C189.21 29.6768 188.824 29.5645 188.326 29.5645C187.91 29.5645 187.56 29.68 187.276 29.9111C186.996 30.139 186.856 30.4222 186.856 30.7607H185.919C185.919 30.3831 186.021 30.0446 186.227 29.7451C186.435 29.4456 186.725 29.2129 187.096 29.0469C187.467 28.8776 187.877 28.793 188.326 28.793C189.12 28.793 189.737 28.972 190.177 29.3301C190.616 29.6849 190.836 30.1797 190.836 30.8145C190.836 31.1432 190.735 31.4427 190.533 31.7129C190.331 31.9831 190.05 32.1963 189.688 32.3525C190.525 32.6325 190.943 33.1875 190.943 34.0176C190.943 34.6556 190.706 35.1618 190.23 35.5361C189.755 35.9105 189.12 36.0977 188.326 36.0977C187.854 36.0977 187.424 36.0146 187.037 35.8486C186.653 35.6794 186.354 35.4401 186.139 35.1309C185.924 34.8216 185.816 34.4538 185.816 34.0273H186.754C186.754 34.4017 186.902 34.7142 187.198 34.9648C187.494 35.2122 187.87 35.3359 188.326 35.3359C188.837 35.3359 189.244 35.2171 189.547 34.9795C189.853 34.7419 190.006 34.4277 190.006 34.0371C190.006 33.2038 189.49 32.779 188.458 32.7627H187.579V31.9912H188.453C188.928 31.9814 189.288 31.874 189.532 31.6689C189.776 31.4639 189.898 31.1742 189.898 30.7998ZM197.657 32.6748C197.657 33.3714 197.54 33.9801 197.306 34.501C197.071 35.0186 196.739 35.4141 196.31 35.6875C195.88 35.9609 195.379 36.0977 194.806 36.0977C194.246 36.0977 193.749 35.9609 193.316 35.6875C192.883 35.4108 192.547 35.0186 192.306 34.5107C192.068 33.9997 191.946 33.4089 191.939 32.7383V32.2256C191.939 31.542 192.058 30.9382 192.296 30.4141C192.534 29.89 192.869 29.4896 193.302 29.2129C193.738 28.9329 194.236 28.793 194.796 28.793C195.366 28.793 195.867 28.9313 196.3 29.208C196.736 29.4814 197.071 29.8802 197.306 30.4043C197.54 30.9251 197.657 31.5322 197.657 32.2256V32.6748ZM196.725 32.2158C196.725 31.3727 196.555 30.7266 196.217 30.2773C195.878 29.8249 195.405 29.5986 194.796 29.5986C194.203 29.5986 193.736 29.8249 193.395 30.2773C193.056 30.7266 192.882 31.3516 192.872 32.1523V32.6748C192.872 33.4919 193.043 34.1348 193.385 34.6035C193.73 35.069 194.203 35.3018 194.806 35.3018C195.411 35.3018 195.88 35.082 196.212 34.6426C196.544 34.1999 196.715 33.5667 196.725 32.7432V32.2158ZM204.493 36H203.551V29.6621H200.045V36H199.107V28.8906H204.493V36ZM210.128 34.1445H207.149L206.48 36H205.514L208.229 28.8906H209.049L211.769 36H210.807L210.128 34.1445ZM207.433 33.373H209.85L208.639 30.0479L207.433 33.373ZM217.896 33.7441C217.809 34.4961 217.53 35.0771 217.062 35.4873C216.596 35.8942 215.976 36.0977 215.201 36.0977C214.361 36.0977 213.688 35.7965 213.18 35.1943C212.675 34.5921 212.423 33.7865 212.423 32.7773V32.0938C212.423 31.4329 212.54 30.8519 212.774 30.3506C213.012 29.8493 213.347 29.4652 213.78 29.1982C214.213 28.9281 214.715 28.793 215.284 28.793C216.039 28.793 216.645 29.0046 217.101 29.4277C217.556 29.8477 217.822 30.4303 217.896 31.1758H216.954C216.873 30.6094 216.695 30.1992 216.422 29.9453C216.152 29.6914 215.772 29.5645 215.284 29.5645C214.685 29.5645 214.215 29.7858 213.873 30.2285C213.535 30.6712 213.365 31.3011 213.365 32.1182V32.8066C213.365 33.5781 213.526 34.1917 213.849 34.6475C214.171 35.1032 214.622 35.3311 215.201 35.3311C215.722 35.3311 216.121 35.2139 216.397 34.9795C216.677 34.7419 216.863 34.3301 216.954 33.7441H217.896ZM224.645 36H223.702V32.7139H220.118V36H219.181V28.8906H220.118V31.9473H223.702V28.8906H224.645V36ZM231.778 32.6748C231.778 33.3714 231.661 33.9801 231.427 34.501C231.192 35.0186 230.86 35.4141 230.431 35.6875C230.001 35.9609 229.5 36.0977 228.927 36.0977C228.367 36.0977 227.87 35.9609 227.438 35.6875C227.005 35.4108 226.668 35.0186 226.427 34.5107C226.189 33.9997 226.067 33.4089 226.061 32.7383V32.2256C226.061 31.542 226.179 30.9382 226.417 30.4141C226.655 29.89 226.99 29.4896 227.423 29.2129C227.859 28.9329 228.357 28.793 228.917 28.793C229.487 28.793 229.988 28.9313 230.421 29.208C230.857 29.4814 231.192 29.8802 231.427 30.4043C231.661 30.9251 231.778 31.5322 231.778 32.2256V32.6748ZM230.846 32.2158C230.846 31.3727 230.676 30.7266 230.338 30.2773C229.999 29.8249 229.526 29.5986 228.917 29.5986C228.325 29.5986 227.857 29.8249 227.516 30.2773C227.177 30.7266 227.003 31.3516 226.993 32.1523V32.6748C226.993 33.4919 227.164 34.1348 227.506 34.6035C227.851 35.069 228.325 35.3018 228.927 35.3018C229.532 35.3018 230.001 35.082 230.333 34.6426C230.665 34.1999 230.836 33.5667 230.846 32.7432V32.2158ZM238.414 33.7441C238.326 34.4961 238.048 35.0771 237.579 35.4873C237.114 35.8942 236.493 36.0977 235.719 36.0977C234.879 36.0977 234.205 35.7965 233.697 35.1943C233.193 34.5921 232.94 33.7865 232.94 32.7773V32.0938C232.94 31.4329 233.058 30.8519 233.292 30.3506C233.53 29.8493 233.865 29.4652 234.298 29.1982C234.731 28.9281 235.232 28.793 235.802 28.793C236.557 28.793 237.162 29.0046 237.618 29.4277C238.074 29.8477 238.339 30.4303 238.414 31.1758H237.472C237.39 30.6094 237.213 30.1992 236.939 29.9453C236.669 29.6914 236.29 29.5645 235.802 29.5645C235.203 29.5645 234.732 29.7858 234.391 30.2285C234.052 30.6712 233.883 31.3011 233.883 32.1182V32.8066C233.883 33.5781 234.044 34.1917 234.366 34.6475C234.688 35.1032 235.139 35.3311 235.719 35.3311C236.24 35.3311 236.638 35.2139 236.915 34.9795C237.195 34.7419 237.381 34.3301 237.472 33.7441H238.414ZM244.464 29.6621H242.179V36H241.246V29.6621H238.966V28.8906H244.464V29.6621ZM250.001 28.8906H250.938V36H250.001V30.5215L246.5 36H245.558V28.8906H246.5V34.3691L250.001 28.8906Z" fill="#9C0202"/>
</svg>
