<svg width="100" height="100" viewBox="0 0 100 100" fill="none" xmlns="http://www.w3.org/2000/svg">
<circle cx="50" cy="50" r="50" fill="#B8DCE8"/>
<circle cx="50" cy="50" r="40" fill="#AFD2DD"/>
<path d="M68.7502 58.3333V33.3333H31.2502V58.3333H68.7502ZM68.7502 29.1666C69.8552 29.1666 70.915 29.6056 71.6964 30.387C72.4778 31.1684 72.9168 32.2282 72.9168 33.3333V58.3333C72.9168 59.4384 72.4778 60.4982 71.6964 61.2796C70.915 62.061 69.8552 62.5 68.7502 62.5H54.1668V66.6666H58.3335V70.8333H41.6668V66.6666H45.8335V62.5H31.2502C30.1451 62.5 29.0853 62.061 28.3039 61.2796C27.5225 60.4982 27.0835 59.4384 27.0835 58.3333V33.3333C27.0835 31.0208 28.9377 29.1666 31.2502 29.1666H68.7502ZM35.4168 37.5H54.1668V47.9166H35.4168V37.5ZM56.2502 37.5H64.5835V41.6666H56.2502V37.5ZM64.5835 43.75V54.1666H56.2502V43.75H64.5835ZM35.4168 50H43.7502V54.1666H35.4168V50ZM45.8335 50H54.1668V54.1666H45.8335V50Z" fill="#4E5CCD"/>
</svg>
